<svg xmlns="http://www.w3.org/2000/svg" width="232.869" height="36.292" viewBox="0 0 232.869 36.292"><defs><style>.a{fill:#4c6455;}</style></defs><g transform="translate(-8.81 -19.43)"><path class="a" d="M206.307,82.322q2.39,1.425,2.391,3.035a5.653,5.653,0,0,1-.92,2.529L198.26,104.21a5.456,5.456,0,0,1-.414.575,4.925,4.925,0,0,1-1.173.9,3.5,3.5,0,0,1-1.862.552,3.968,3.968,0,0,1-1.908-.483,3.731,3.731,0,0,1-1.265-.989l-.414-.506-9.565-16.37a5.178,5.178,0,0,1-.92-2.483q0-1.655,2.391-3.081a6.125,6.125,0,0,1,2.8-1.012,2,2,0,0,1,1.54.621,8.676,8.676,0,0,1,1.219,1.862l6.024,11.588,6.024-11.588c.338-.582.591-1,.759-1.265a3.012,3.012,0,0,1,.8-.782,2.1,2.1,0,0,1,1.242-.391A5.633,5.633,0,0,1,206.307,82.322Z" transform="translate(-141.523 -50.936)"/><path class="a" d="M365.459,90.569q0,3.035-1.4,4.391a4.379,4.379,0,0,1-3.1,1.357h-10.9a2.521,2.521,0,0,0,1.517,2.161,6.439,6.439,0,0,0,3.265.874,14.328,14.328,0,0,0,2.345-.184,9.945,9.945,0,0,0,1.609-.368l.506-.184a4.622,4.622,0,0,1,1.839-.506q1.472,0,2.529,2.069a5.086,5.086,0,0,1,.6,2.115q0,4.093-9.794,4.093a14.778,14.778,0,0,1-6.047-1.173,10.374,10.374,0,0,1-4.116-3.081,13.781,13.781,0,0,1-2.184-4.024,13.433,13.433,0,0,1-.713-4.322,12.023,12.023,0,0,1,3.748-9.266,14.278,14.278,0,0,1,13.5-2.851,10.011,10.011,0,0,1,3.127,1.609,9.85,9.85,0,0,1,2.092,2.276,9.415,9.415,0,0,1,1.219,2.552A8.776,8.776,0,0,1,365.459,90.569Zm-9.7,1.563q1.746,0,1.747-1.471a2.073,2.073,0,0,0-.8-1.7,3.639,3.639,0,0,0-2.322-.644,4.627,4.627,0,0,0-2.943,1.219,3.417,3.417,0,0,0-1.471,2.6Z" transform="translate(-273.777 -50.722)"/><path class="a" d="M36.962,64.135q0,3.642-1.684,5.27a6.5,6.5,0,0,1-4.255,1.627H17.947a5.733,5.733,0,0,0,2.529,3.654,9.77,9.77,0,0,0,4.448,1.049,16.95,16.95,0,0,0,2.814-.221,11.73,11.73,0,0,0,1.931-.442l.607-.221a5.554,5.554,0,0,1,2.207-.607,2.855,2.855,0,0,1,3.035,1.776,5.757,5.757,0,0,1,.718,2.538c-.092,2.579-3.917,4.558-11.754,4.558a17.719,17.719,0,0,1-7.257-1.408,12.428,12.428,0,0,1-4.938-3.7,16.494,16.494,0,0,1-2.621-4.828A16.1,16.1,0,0,1,8.81,68a14.426,14.426,0,0,1,4.5-11.119A15.891,15.891,0,0,1,24.536,52.71a14.69,14.69,0,0,1,4.789.745,10.455,10.455,0,0,1,5.911,4.662,12.679,12.679,0,0,1,1.726,6.019Zm-10.581,2.23c1.4,0,2.8-.941,2.8-2.119a3.134,3.134,0,0,0-1.259-2.619,6.975,6.975,0,0,0-3.909-1.257,5.8,5.8,0,0,0-4.593,1.639,6.92,6.92,0,0,0-1.588,4.356Z" transform="translate(0 -27.394)"/><path class="a" d="M507.763,83.91a9.726,9.726,0,0,1,7.656,3.518A12.614,12.614,0,0,1,518.477,96V104.1a13.337,13.337,0,0,1-.069,1.586,3.711,3.711,0,0,1-.414,1.2,1.953,1.953,0,0,1-1.219.943,8.032,8.032,0,0,1-2.345.276,7.12,7.12,0,0,1-1.977-.23,4,4,0,0,1-1.2-.529,1.793,1.793,0,0,1-.621-.943,4.46,4.46,0,0,1-.23-1.058q-.024-.414-.023-1.288V95.958a3.931,3.931,0,0,0-1.081-2.943,4.486,4.486,0,0,0-5.84.046,3.871,3.871,0,0,0-1.127,2.9V104.1a13.343,13.343,0,0,1-.069,1.586,3.711,3.711,0,0,1-.414,1.2,1.952,1.952,0,0,1-1.219.943,8.031,8.031,0,0,1-2.345.276,7.839,7.839,0,0,1-2.3-.276,1.93,1.93,0,0,1-1.219-.966,3.949,3.949,0,0,1-.414-1.219,13.343,13.343,0,0,1-.069-1.586V87.773a12.83,12.83,0,0,1,.069-1.54,3.267,3.267,0,0,1,.437-1.173,1.983,1.983,0,0,1,1.242-.9,8.537,8.537,0,0,1,2.3-.253,7.642,7.642,0,0,1,2.253.276,2.05,2.05,0,0,1,1.2.8,2.85,2.85,0,0,1,.391.9,5.444,5.444,0,0,1,.069.966,3.149,3.149,0,0,1,.253-.322q.162-.183.69-.69a7.737,7.737,0,0,1,1.127-.9,6.923,6.923,0,0,1,1.54-.713A5.883,5.883,0,0,1,507.763,83.91Z" transform="translate(-399.618 -53.076)"/><path class="a" d="M657.97,53.526l-2.989-.184v6.346a3.177,3.177,0,0,0,.391,1.793,1.6,1.6,0,0,0,1.4.552,15.789,15.789,0,0,1,1.724.069,3.275,3.275,0,0,1,1.2.414,1.794,1.794,0,0,1,.851,1.081,7.027,7.027,0,0,1,.23,2.023,7.3,7.3,0,0,1-.3,2.3,2.012,2.012,0,0,1-.989,1.219,3.949,3.949,0,0,1-1.219.414,12.852,12.852,0,0,1-1.54.069q-4.783,0-7.265-2.161t-2.483-7.311V53.342a10.619,10.619,0,0,1-1.655.138,2.367,2.367,0,0,1-1.908-.782,5.434,5.434,0,0,1-.667-3.265,8.338,8.338,0,0,1,.23-2.138,2.355,2.355,0,0,1,.667-1.219,2.3,2.3,0,0,1,.851-.483,3.651,3.651,0,0,1,.966-.115l1.517.184V40.927a12.742,12.742,0,0,1,.069-1.563,3.28,3.28,0,0,1,.414-1.127,1.918,1.918,0,0,1,1.219-.874,8.748,8.748,0,0,1,2.345-.253,6.675,6.675,0,0,1,1.908.23,4.018,4.018,0,0,1,1.173.529,1.79,1.79,0,0,1,.621.92,4.182,4.182,0,0,1,.23,1.081q.024.459.023,1.288v4.506q2.024-.183,3.035-.184a13.346,13.346,0,0,1,1.586.069,3.711,3.711,0,0,1,1.2.414,1.952,1.952,0,0,1,.943,1.219,8.033,8.033,0,0,1,.276,2.345,7.832,7.832,0,0,1-.276,2.3,1.931,1.931,0,0,1-.966,1.219,3.95,3.95,0,0,1-1.219.414A13.344,13.344,0,0,1,657.97,53.526Z" transform="translate(-521.822 -14.553)"/><path class="a" d="M779.279,31.308a10.207,10.207,0,0,1,7.518,3.633,11.789,11.789,0,0,1,3.426,8.323,12.026,12.026,0,0,1-3.4,8.53,10.2,10.2,0,0,1-7.541,3.61q-3.68,0-5.334-2.207-.369,2.252-3.955,2.253a7.84,7.84,0,0,1-2.3-.276,1.93,1.93,0,0,1-1.219-.966,3.948,3.948,0,0,1-.414-1.219,13.35,13.35,0,0,1-.069-1.586V23.951a13.35,13.35,0,0,1,.069-1.586,3.709,3.709,0,0,1,.414-1.2,1.953,1.953,0,0,1,1.219-.943,8.033,8.033,0,0,1,2.345-.276,7.839,7.839,0,0,1,2.3.276,1.931,1.931,0,0,1,1.219.966,3.952,3.952,0,0,1,.414,1.219A13.35,13.35,0,0,1,774.037,24v9.565A6.381,6.381,0,0,1,779.279,31.308Zm-4.023,14.853a3.659,3.659,0,0,0,2.828,1.242,4.167,4.167,0,0,0,4.093-4,4.14,4.14,0,0,0-1.1-2.782,3.71,3.71,0,0,0-2.943-1.265,3.616,3.616,0,0,0-2.92,1.288,4.211,4.211,0,0,0-1.081,2.759A4.008,4.008,0,0,0,775.256,46.161Z" transform="translate(-623.266 -0.428)"/><path class="a" d="M928.61,80.79a12.6,12.6,0,0,1,8.875,3.564,12.676,12.676,0,0,1,1.839,15.864,12.411,12.411,0,0,1-4.805,4.368,12.94,12.94,0,0,1-5.817,1.4,12.606,12.606,0,0,1-5.932-1.494,13.043,13.043,0,0,1-4.805-4.414,11.589,11.589,0,0,1-1.954-6.6,11.884,11.884,0,0,1,3.863-9.1A12.5,12.5,0,0,1,928.61,80.79Zm-2.989,15.979A4.883,4.883,0,0,0,928.61,97.9a5.018,5.018,0,0,0,3.035-1.15,4.618,4.618,0,0,0,.092-6.76,5.059,5.059,0,0,0-3.173-1.1,4.7,4.7,0,0,0-2.989,1.15,4.054,4.054,0,0,0-1.426,3.357A3.985,3.985,0,0,0,925.621,96.769Z" transform="translate(-746.753 -50.508)"/><path class="a" d="M1090.155,42.928l6.116,5.058q.6.507.9.782a3.367,3.367,0,0,1,.575.736,1.776,1.776,0,0,1,.276.92,5.676,5.676,0,0,1-1.426,2.989q-1.565,1.931-2.943,1.931a4.3,4.3,0,0,1-2.437-1.2l-.184-.138-.46-.322q-1.059-.873-3.265-3.058t-3.357-3.1v3.541a13.3,13.3,0,0,1-.069,1.586,3.708,3.708,0,0,1-.414,1.2,1.952,1.952,0,0,1-1.219.943,8.032,8.032,0,0,1-2.345.276,7.838,7.838,0,0,1-2.3-.276,1.93,1.93,0,0,1-1.219-.966,3.949,3.949,0,0,1-.414-1.219,13.337,13.337,0,0,1-.069-1.586V23.477a13.337,13.337,0,0,1,.069-1.586,3.949,3.949,0,0,1,.414-1.219,1.93,1.93,0,0,1,1.219-.966,8.031,8.031,0,0,1,2.345-.276,7.183,7.183,0,0,1,1.954.23,3.373,3.373,0,0,1,1.2.552,2.008,2.008,0,0,1,.6.943,4.164,4.164,0,0,1,.23,1.058q.024.438.023,1.311V38.1q.828-.69,2.506-2.345t2.506-2.345l.552-.368a4.8,4.8,0,0,1,2.529-1.242,3.964,3.964,0,0,1,2.851,1.793,5.715,5.715,0,0,1,1.517,2.989q0,1.058-1.7,2.483Z" transform="translate(-878.365 0)"/><path class="a" d="M1220.97,106.417a16.117,16.117,0,0,1-8.737-2.575,1.788,1.788,0,0,1-.874-1.609q0-1.334,1.747-3.771a1.73,1.73,0,0,1,1.563-.782,5.674,5.674,0,0,1,2.805.966,8.11,8.11,0,0,0,3.817,1.288q2.8,0,2.8-1.1c0-.306-.292-.568-.874-.782a10.759,10.759,0,0,0-2.207-.506,13.525,13.525,0,0,1-2.874-.759,16.154,16.154,0,0,1-2.874-1.4,6.141,6.141,0,0,1-2.207-2.6,9.417,9.417,0,0,1-.874-4.207q0-7.266,9.978-7.265a16.212,16.212,0,0,1,6.714,1.563q1.61.735,1.609,2.023a5.238,5.238,0,0,1-.966,2.483q-1.059,1.655-2.115,1.655a4.183,4.183,0,0,1-1.563-.46,8.854,8.854,0,0,0-3.725-.92q-2.714,0-2.713,1.012a1.321,1.321,0,0,0,.9,1.173,7.061,7.061,0,0,0,2.253.6,17.99,17.99,0,0,1,2.92.621,18.392,18.392,0,0,1,2.92,1.127,5.312,5.312,0,0,1,2.253,2.253,7.789,7.789,0,0,1,.9,3.886,8.753,8.753,0,0,1-.9,4.161,5.653,5.653,0,0,1-2.529,2.483,13,13,0,0,1-3.311,1.127A20.581,20.581,0,0,1,1220.97,106.417Z" transform="translate(-989.868 -50.936)"/></g></svg>